<svg xmlns="http://www.w3.org/2000/svg" viewBox="0 0 400 400" role="img">
  <defs>
    <linearGradient id="g" x1="0" y1="0" x2="1" y2="1">
      <stop offset="0" stop-color="#e8c976"/><stop offset="0.5" stop-color="#d4a843"/><stop offset="1" stop-color="#b08a2e"/>
    </linearGradient>
  </defs>
  <circle cx="200" cy="200" r="150" fill="none" stroke="#d4a843" stroke-opacity="0.14" stroke-width="1" stroke-dasharray="5 7"/>
  <circle cx="200" cy="200" r="112" fill="none" stroke="#d4a843" stroke-opacity="0.18" stroke-width="1"/>
  <path d="M 178.0 100.0 L 167.0 112.5 L 178.0 125.0 L 167.0 137.5 L 178.0 150.0 L 167.0 162.5 L 178.0 175.0 L 167.0 187.5 L 178.0 200.0 L 167.0 212.5 L 178.0 225.0 L 167.0 237.5 L 178.0 250.0 L 167.0 262.5 L 178.0 275.0 L 167.0 287.5 L 178.0 300.0 L 200.0 346.0 L 222.0 300.0 L 233.0 287.5 L 222.0 275.0 L 233.0 262.5 L 222.0 250.0 L 233.0 237.5 L 222.0 225.0 L 233.0 212.5 L 222.0 200.0 L 233.0 187.5 L 222.0 175.0 L 233.0 162.5 L 222.0 150.0 L 233.0 137.5 L 222.0 125.0 L 233.0 112.5 L 222.0 100.0 Z" fill="url(#g)" stroke="#1a1d23" stroke-width="2" stroke-linejoin="round"/>
  <rect x="140" y="62" width="120" height="40" rx="14" fill="url(#g)" stroke="#1a1d23" stroke-width="2"/>
  <rect x="163" y="78" width="74" height="8" rx="3" fill="#1a1d23"/><rect x="196" y="65" width="8" height="34" rx="3" fill="#1a1d23"/>
  
</svg>
