<svg xmlns="http://www.w3.org/2000/svg" viewBox="0 0 400 400" role="img">
  <defs>
    <linearGradient id="g" x1="0" y1="0" x2="1" y2="1">
      <stop offset="0" stop-color="#e8c976"/><stop offset="0.5" stop-color="#d4a843"/><stop offset="1" stop-color="#b08a2e"/>
    </linearGradient>
  </defs>
  <circle cx="200" cy="200" r="150" fill="none" stroke="#d4a843" stroke-opacity="0.14" stroke-width="1" stroke-dasharray="5 7"/>
  <circle cx="200" cy="200" r="112" fill="none" stroke="#d4a843" stroke-opacity="0.18" stroke-width="1"/>
  <path d="M 180.0 100.0 L 167.0 114.3 L 180.0 128.6 L 167.0 142.9 L 180.0 157.1 L 167.0 171.4 L 180.0 185.7 L 167.0 200.0 L 180.0 214.3 L 167.0 228.6 L 180.0 242.9 L 167.0 257.1 L 180.0 271.4 L 167.0 285.7 L 180.0 300.0 L 200.0 346.0 L 220.0 300.0 L 233.0 285.7 L 220.0 271.4 L 233.0 257.1 L 220.0 242.9 L 233.0 228.6 L 220.0 214.3 L 233.0 200.0 L 220.0 185.7 L 233.0 171.4 L 220.0 157.1 L 233.0 142.9 L 220.0 128.6 L 233.0 114.3 L 220.0 100.0 Z" fill="url(#g)" stroke="#1a1d23" stroke-width="2" stroke-linejoin="round"/>
  <path d="M 136 62 L 264 62 L 224 100 L 176 100 Z" fill="url(#g)" stroke="#1a1d23" stroke-width="2"/>
  <rect x="163" y="78" width="74" height="8" rx="3" fill="#1a1d23"/><rect x="196" y="65" width="8" height="34" rx="3" fill="#1a1d23"/>
  
</svg>
